<svg width="114" height="114" xmlns="http://www.w3.org/2000/svg" xmlns:xlink="http://www.w3.org/1999/xlink" overflow="hidden"><defs><clipPath id="clip0"><rect x="340" y="295" width="114" height="114"/></clipPath></defs><g clip-path="url(#clip0)" transform="translate(-340 -295)"><path d="M388.643 376.169C389.514 376.148 390.405 376.293 391.268 376.624 394.719 377.948 396.277 381.809 394.941 385.23 393.605 388.65 389.709 390.195 386.258 388.871 382.807 387.547 381.249 383.685 382.585 380.265 383.587 377.782 386.029 376.231 388.643 376.169ZM365.33 353.012C369.004 353.012 372.009 355.991 372.009 359.632 372.009 363.273 369.004 366.252 365.33 366.252 361.656 366.252 358.651 363.273 358.651 359.632 358.651 355.991 361.656 353.012 365.33 353.012ZM394.273 350.805C396.166 350.805 397.613 352.24 397.613 354.115 397.613 355.991 396.166 357.425 394.273 357.425 392.381 357.425 390.934 355.991 390.934 354.115 390.934 352.24 392.381 350.805 394.273 350.805ZM423.217 307.774 412.085 314.394 394.162 346.171 388.707 348.598 378.688 358.529C378.132 351.688 372.343 346.392 365.33 346.392 357.983 346.392 351.972 352.35 351.972 359.632 351.972 366.914 357.983 372.872 365.33 372.872 368.224 372.872 370.896 371.99 373.122 370.445L383.921 364.487 377.909 375.189C377.353 376.072 376.796 376.955 376.351 377.948 373.568 384.678 376.907 392.402 383.698 395.16 390.489 397.918 398.281 394.608 401.064 387.878 403.847 381.147 400.507 373.424 393.717 370.666 392.381 370.114 391.045 369.893 389.709 369.783L399.728 359.853 402.177 354.446 434.349 336.462 441.028 325.428 408.745 339.772ZM396.5 296C427.704 296 453 321.072 453 352 453 382.928 427.704 408 396.5 408 365.296 408 340 382.928 340 352 340 321.072 365.296 296 396.5 296Z" fill="#7F7F7F" fill-rule="evenodd"/></g></svg>